<svg width="33" height="48" viewBox="0 0 33 48" fill="none" xmlns="http://www.w3.org/2000/svg">
<path d="M8.00602 47.9998C12.42 47.9998 16.0033 44.4166 16.0033 40.0026V32.0054H8.00602C3.59202 32.0054 0.00878906 35.5886 0.00878906 40.0026C0.00878906 44.4166 3.59202 47.9998 8.00602 47.9998Z" fill="#0ACF83"/>
<path d="M0 23.9997C0 19.5857 3.58323 16.0024 7.99724 16.0024H15.9945V32.0053H7.99724C3.58323 32.0053 0 28.4221 0 24.0081V23.9997Z" fill="#A259FF"/>
<path d="M0 7.99724C0 3.58323 3.58323 0 7.99724 0H15.9945V16.0029H7.99724C3.58323 16.0029 0 12.4196 0 8.00563V7.99724Z" fill="#F24E1E"/>
<path d="M15.9277 0H23.925C28.339 0 31.9222 3.58323 31.9222 7.99724C31.9222 12.4112 28.339 15.9945 23.925 15.9945H15.9277V0Z" fill="#FF7262"/>
<path d="M32.0061 23.9997C32.0061 28.4137 28.4229 31.9969 24.0089 31.9969C19.5949 31.9969 15.9277 28.4137 15.9277 23.9997C15.9277 19.5857 19.511 16.0024 23.925 16.0024C28.339 16.0024 31.9222 19.5857 31.9222 23.9997H32.0061Z" fill="#1ABCFE"/>
</svg>
