<svg width="50" height="48" viewBox="0 0 50 48" fill="none" xmlns="http://www.w3.org/2000/svg">
<path fill-rule="evenodd" clip-rule="evenodd" d="M24.7737 0C11.3036 0 0.37793 11.0144 0.37793 24.5938C0.37793 35.4573 7.41229 44.6611 16.991 47.9805C18.1883 48.1314 18.6373 47.377 18.6373 46.7734C18.6373 46.1699 18.6373 44.6611 18.6373 42.5487C11.9023 44.0575 10.4056 39.2293 10.4056 39.2293C9.35796 36.3626 7.71162 35.6082 7.71162 35.6082C5.46661 34.0993 7.86129 34.0993 7.86129 34.0993C10.256 34.2502 11.603 36.6643 11.603 36.6643C13.848 40.4364 17.2903 39.3802 18.6373 38.7767C18.787 37.117 19.5353 36.0608 20.134 35.4573C14.746 34.8537 9.05863 32.7414 9.05863 23.2358C9.05863 20.52 9.95663 18.4076 11.603 16.597C11.4533 16.1444 10.5553 13.5794 11.9023 10.26C11.9023 10.26 13.9976 9.65645 18.6373 12.825C20.583 12.2214 22.6783 12.0706 24.7737 12.0706C26.869 12.0706 28.9644 12.3723 30.91 12.825C35.5497 9.65645 37.6451 10.26 37.6451 10.26C38.9921 13.5794 38.0941 16.1444 37.9444 16.7479C39.4411 18.4076 40.4887 20.6708 40.4887 23.3867C40.4887 32.8923 34.8014 34.8537 29.4134 35.4573C30.3114 36.2117 31.0597 37.7205 31.0597 39.9837C31.0597 43.3031 31.0597 45.8681 31.0597 46.7734C31.0597 47.377 31.5087 48.1314 32.706 47.9805C42.4344 44.6611 49.3191 35.4573 49.3191 24.5938C49.1694 11.0144 38.2437 0 24.7737 0Z" fill="#231E1B"/>
</svg>
