<svg width="50" height="48" viewBox="0 0 50 48" fill="none" xmlns="http://www.w3.org/2000/svg">
<g clip-path="url(#clip0_172_4325)">
<path d="M8.70469 3.86887e-06H40.4298C41.5725 -0.00107545 42.7041 0.223684 43.76 0.66142C44.8159 1.09916 45.7753 1.74127 46.5832 2.55102C47.3912 3.36078 48.0319 4.32226 48.4687 5.38046C48.9055 6.43866 49.1297 7.57279 49.1287 8.71795V39.2821C49.1297 40.4272 48.9055 41.5613 48.4687 42.6195C48.0319 43.6777 47.3912 44.6392 46.5832 45.449C45.7753 46.2587 44.8159 46.9009 43.76 47.3386C42.7041 47.7763 41.5725 48.0011 40.4298 48H8.70469C7.56204 48.0011 6.4304 47.7763 5.37452 47.3386C4.31865 46.9009 3.35927 46.2587 2.55129 45.449C1.74331 44.6392 1.1026 43.6777 0.665829 42.6195C0.229053 41.5613 0.00478628 40.4272 0.00586324 39.2821V8.71795C0.00478628 7.57279 0.229053 6.43866 0.665829 5.38046C1.1026 4.32226 1.74331 3.36078 2.55129 2.55102C3.35927 1.74127 4.31865 1.09916 5.37452 0.66142C6.4304 0.223684 7.56204 -0.00107545 8.70469 3.86887e-06Z" fill="#330000"/>
<path d="M23.8103 28.8004H16.1962L14.6407 33.6209C14.6233 33.7088 14.5737 33.787 14.5018 33.8401C14.4298 33.8932 14.3407 33.9175 14.2518 33.9081H10.4038C10.1787 33.9081 10.1173 33.785 10.1787 33.5389L16.7693 14.5235C16.8307 14.3184 16.8921 14.0927 16.974 13.8466C17.0564 13.4069 17.0975 12.9606 17.0968 12.5132C17.0907 12.4619 17.1041 12.4101 17.1345 12.3682C17.1649 12.3264 17.2099 12.2976 17.2605 12.2876H22.5617C22.7255 12.2876 22.8073 12.3491 22.8278 12.4517L30.2986 33.5799C30.36 33.8055 30.2986 33.9081 30.0939 33.9081H25.8161C25.7438 33.9151 25.6713 33.8963 25.6114 33.855C25.5515 33.8138 25.508 33.7527 25.4886 33.6825L23.8103 28.8004ZM17.3834 24.6363H22.5822C22.4594 24.2055 22.2956 23.6927 22.1114 23.1594C21.9272 22.6261 21.743 22.0107 21.5588 21.3953C21.3746 20.7799 21.1699 20.144 20.9652 19.5081C20.7605 18.8722 20.5763 18.2773 20.4126 17.6825C20.2488 17.0876 20.1056 16.5748 19.9623 16.0825H19.9214C19.7374 16.9765 19.5051 17.8599 19.2255 18.7286C18.9184 19.7132 18.6114 20.7389 18.2839 21.7645C17.9974 22.8107 17.6904 23.7748 17.3834 24.6363Z" fill="#FF9A00"/>
<path d="M34.7603 15.7948C34.4243 15.8022 34.0902 15.7425 33.7775 15.6192C33.4648 15.496 33.1796 15.3116 32.9387 15.0768C32.4697 14.563 32.22 13.8857 32.2427 13.1897C32.2307 12.8506 32.29 12.5127 32.417 12.1981C32.544 11.8836 32.7357 11.5993 32.9796 11.364C33.4716 10.898 34.1243 10.6407 34.8012 10.6461C35.5995 10.6461 36.2135 10.8922 36.6638 11.364C37.1172 11.8614 37.3595 12.5163 37.3392 13.1897C37.3517 13.5362 37.2948 13.8818 37.1717 14.206C37.0487 14.5301 36.862 14.8262 36.6229 15.0768C36.3817 15.323 36.0906 15.5145 35.7693 15.6384C35.448 15.7622 35.1039 15.8156 34.7603 15.7948ZM32.4679 33.5999V17.8051C32.4679 17.5999 32.5498 17.5179 32.734 17.5179H36.7866C36.9708 17.5179 37.0527 17.6204 37.0527 17.8051V33.5999C37.0527 33.8256 36.9708 33.9281 36.7866 33.9281H32.7749C32.7319 33.9317 32.6886 33.9255 32.6484 33.9099C32.6081 33.8944 32.5718 33.8699 32.5423 33.8383C32.5128 33.8068 32.4908 33.7689 32.4779 33.7277C32.465 33.6864 32.4616 33.6427 32.4679 33.5999Z" fill="#FF9A00"/>
</g>
<defs>
<clipPath id="clip0_172_4325">
<rect width="49.1228" height="48" fill="white" transform="translate(0.00585938)"/>
</clipPath>
</defs>
</svg>
