<svg width="49" height="48" viewBox="0 0 49 48" fill="none" xmlns="http://www.w3.org/2000/svg">
<path d="M48.3193 21.488H33.697L46.36 14.176L43.8488 9.824L31.1842 17.136L38.4938 4.472L34.1433 1.96L26.8321 14.6208V0H21.8066V14.6224L14.4954 1.96L10.1433 4.472L17.4528 17.1328L4.79145 9.824L2.27868 14.176L14.9417 21.488H0.319336V26.5136H14.9401L2.27868 33.8256L4.78985 38.1776L17.4544 30.8656L10.1433 43.5296L14.4938 46.0416L21.8066 33.3792V48H26.8321V33.0656L34.2776 45.9616L38.3579 43.6064L30.9107 30.7072L43.8456 38.176L46.3584 33.824L33.697 26.512H48.3177V21.488H48.3193ZM24.3193 30.832C23.4222 30.8321 22.5339 30.6555 21.705 30.3121C20.8762 29.9688 20.123 29.4655 19.4886 28.8311C18.8542 28.1966 18.3509 27.4433 18.0075 26.6142C17.6641 25.7852 17.4873 24.8966 17.4872 23.9992C17.4871 23.1018 17.6637 22.2132 18.0069 21.384C18.3501 20.5549 18.8532 19.8015 19.4875 19.1669C20.1218 18.5322 20.8748 18.0288 21.7036 17.6853C22.5323 17.3418 23.4206 17.1649 24.3177 17.1648C26.1295 17.1646 27.8672 17.8844 29.1484 19.1658C30.4297 20.4471 31.1496 22.1852 31.1499 23.9976C31.1501 25.81 30.4305 27.5482 29.1496 28.8299C27.8686 30.1116 26.1311 30.8318 24.3193 30.832Z" fill="#605FE9"/>
</svg>
