<svg width="47" height="48" viewBox="0 0 47 48" fill="none" xmlns="http://www.w3.org/2000/svg">
<path d="M3.21385 2.06977L29.8337 0.109465C33.1026 -0.170907 33.9437 0.0168999 35.9983 1.50941L44.4956 7.48174C45.8977 8.50875 46.3651 8.78837 46.3651 9.90793V42.6641C46.3651 44.7169 45.6172 45.931 43.0026 46.1167L12.0892 47.9835C10.1265 48.0771 9.19235 47.7974 8.16449 46.4901L1.9069 38.3712C0.78561 36.8768 0.319336 35.7587 0.319336 34.4506V5.33478C0.319336 3.65599 1.06737 2.25567 3.21385 2.06977Z" fill="#E8E5E3"/>
<path fill-rule="evenodd" clip-rule="evenodd" d="M29.8337 0.109465L3.21385 2.06977C1.06737 2.25567 0.319336 3.65599 0.319336 5.33478V34.4506C0.319336 35.7587 0.78561 36.8768 1.9069 38.3712L8.16449 46.4901C9.19235 47.7974 10.1265 48.0771 12.0892 47.9835L43.0026 46.1167C45.6172 45.931 46.3651 44.7169 46.3651 42.6641V9.90793C46.3651 8.84675 45.9452 8.5402 44.7074 7.63654C44.6393 7.58682 44.5687 7.5353 44.4956 7.48174L35.9983 1.50941C33.9437 0.0168999 33.1026 -0.170907 29.8337 0.109465ZM12.7901 9.37076C10.2662 9.54119 9.69271 9.57992 8.25943 8.41554L4.6146 5.52268C4.24286 5.1486 4.4293 4.68196 5.36261 4.58941L30.9546 2.72281C33.1022 2.53576 34.2227 3.28355 35.0638 3.93648L39.4532 7.10969C39.6401 7.20262 40.1063 7.76185 39.5457 7.76185L13.1159 9.34885L12.7901 9.37076ZM9.84611 42.384V14.5752C9.84611 13.3623 10.2197 12.802 11.3399 12.7078L41.6936 10.9354C42.7231 10.842 43.1893 11.4957 43.1893 12.7078V40.33C43.1893 41.544 43.0021 42.572 41.3203 42.6645L12.2739 44.3451C10.593 44.4376 9.84611 43.8785 9.84611 42.384ZM38.5206 16.0665C38.7068 16.9073 38.5206 17.7472 37.6784 17.8417L36.2788 18.1206V38.6508C35.0637 39.3039 33.9432 39.6772 33.0095 39.6772C31.5146 39.6772 31.1402 39.2102 30.0204 37.8112L20.866 23.44V37.3446L23.7628 37.9983C23.7628 37.9983 23.7628 39.6772 21.4257 39.6772L14.9828 40.051C14.7956 39.6772 14.9828 38.7448 15.6363 38.5579L17.3176 38.092V19.7076L14.9832 19.5205C14.796 18.6798 15.2623 17.4676 16.5708 17.3735L23.4826 16.9076L33.0095 31.466V18.5872L30.5805 18.3084C30.394 17.2806 31.1402 16.5343 32.0743 16.4418L38.5206 16.0665Z" fill="black"/>
</svg>
