<svg width="50" height="48" viewBox="0 0 50 48" fill="none" xmlns="http://www.w3.org/2000/svg">
<g clip-path="url(#clip0_172_4331)">
<path d="M8.82774 3.86887e-06H40.5529C41.6955 -0.00107545 42.8272 0.223684 43.8831 0.66142C44.9389 1.09916 45.8983 1.74127 46.7063 2.55102C47.5143 3.36078 48.155 4.32226 48.5918 5.38046C49.0285 6.43866 49.2528 7.57279 49.2517 8.71795V39.2821C49.2528 40.4272 49.0285 41.5613 48.5918 42.6195C48.155 43.6777 47.5143 44.6392 46.7063 45.449C45.8983 46.2587 44.9389 46.9009 43.8831 47.3386C42.8272 47.7763 41.6955 48.0011 40.5529 48H8.82774C7.68509 48.0011 6.55345 47.7763 5.49757 47.3386C4.44169 46.9009 3.48231 46.2587 2.67434 45.449C1.86636 44.6392 1.22565 43.6777 0.788876 42.6195C0.3521 41.5613 0.127833 40.4272 0.12891 39.2821V8.71795C0.127833 7.57279 0.3521 6.43866 0.788876 5.38046C1.22565 4.32226 1.86636 3.36078 2.67434 2.55102C3.48231 1.74127 4.44169 1.09916 5.49757 0.66142C6.55345 0.223684 7.68509 -0.00107545 8.82774 3.86887e-06V3.86887e-06Z" fill="#001E36"/>
<path d="M11.1816 33.6615V12.5538C11.1816 12.4102 11.243 12.3282 11.3863 12.3282C11.7343 12.3282 12.0618 12.3282 12.5325 12.3076C13.0033 12.2871 13.5354 12.2871 14.0881 12.2666C14.6407 12.2461 15.2343 12.2461 15.8688 12.2256C16.5033 12.2051 17.1173 12.2051 17.7313 12.2051C19.4097 12.2051 20.8015 12.4102 21.9477 12.841C22.9752 13.1907 23.9121 13.7653 24.6904 14.523C25.35 15.1862 25.8595 15.9837 26.1846 16.8615C26.4944 17.7163 26.6537 18.6187 26.6553 19.5282C26.6553 21.2923 26.246 22.7487 25.4273 23.8974C24.6047 25.0445 23.4564 25.9166 22.1319 26.4C20.7401 26.9128 19.205 27.0974 17.5267 27.0974C17.0354 27.0974 16.708 27.0974 16.5033 27.0769C16.2986 27.0564 16.012 27.0564 15.6232 27.0564V33.641C15.6277 33.6747 15.6255 33.7091 15.6166 33.7419C15.6076 33.7748 15.5922 33.8055 15.5712 33.8323C15.5502 33.8591 15.5241 33.8814 15.4943 33.8979C15.4646 33.9143 15.4318 33.9246 15.398 33.9282H11.4273C11.2635 33.9282 11.1816 33.8461 11.1816 33.6615ZM15.6436 16.2871V23.1794C15.9302 23.2 16.1963 23.2205 16.4419 23.2205H17.5267C18.3257 23.2214 19.1199 23.0968 19.8805 22.8512C20.533 22.6589 21.1159 22.2813 21.5588 21.7641C21.9887 21.2512 22.1933 20.5538 22.1933 19.6512C22.2126 19.0102 22.0493 18.377 21.7226 17.8256C21.3813 17.293 20.8794 16.8834 20.2898 16.6564C19.5214 16.3548 18.6993 16.2151 17.8746 16.2461C17.3425 16.2461 16.8717 16.2461 16.4828 16.2666C16.203 16.2483 15.9222 16.2552 15.6436 16.2871V16.2871Z" fill="#31A8FF"/>
<path d="M39.4272 21.9279C38.8093 21.6017 38.1474 21.3668 37.4623 21.2305C36.7099 21.0597 35.9414 20.9703 35.1699 20.9638C34.7557 20.9495 34.3417 20.9979 33.9419 21.1074C33.6869 21.1605 33.4608 21.3068 33.3074 21.5176C33.2039 21.6841 33.1474 21.8754 33.1436 22.0715C33.1531 22.2666 33.2249 22.4536 33.3483 22.6048C33.5423 22.8328 33.7786 23.0209 34.0442 23.1587C34.515 23.4048 35.0062 23.6305 35.4974 23.8356C36.6032 24.2087 37.6612 24.7113 38.6495 25.333C39.3216 25.7566 39.8775 26.3419 40.2664 27.0356C40.5953 27.69 40.7571 28.4159 40.7372 29.1484C40.7538 30.118 40.4754 31.0696 39.9389 31.8766C39.368 32.6955 38.5714 33.3299 37.6465 33.7023C36.6436 34.133 35.4155 34.3587 33.9419 34.3587C33.0075 34.3624 32.075 34.2731 31.1582 34.092C30.4364 33.967 29.7343 33.7462 29.0705 33.4356C28.9992 33.3997 28.9398 33.3437 28.8998 33.2744C28.8598 33.2052 28.8409 33.1257 28.8454 33.0458V29.4766C28.8436 29.4416 28.8501 29.4066 28.8643 29.3745C28.8785 29.3424 28.9001 29.3142 28.9272 29.292C28.9561 29.2752 28.9896 29.2681 29.0227 29.2718C29.0559 29.2754 29.087 29.2897 29.1115 29.3125C29.8999 29.7783 30.7563 30.1175 31.6495 30.3176C32.4381 30.5233 33.2498 30.6267 34.0647 30.6253C34.8424 30.6253 35.3951 30.5228 35.7635 30.3381C35.9278 30.2621 36.0671 30.1406 36.165 29.988C36.2629 29.8354 36.3153 29.658 36.3161 29.4766C36.3161 29.1894 36.1524 28.9228 35.8249 28.6561C35.4974 28.3894 34.822 28.0817 33.8191 27.692C32.7902 27.3287 31.8131 26.8322 30.9126 26.2151C30.2713 25.7569 29.7399 25.1613 29.3571 24.4715C29.0304 23.8236 28.8687 23.1048 28.8863 22.3792C28.8893 21.5039 29.1299 20.6459 29.5822 19.8971C30.1022 19.0737 30.8485 18.4183 31.7313 18.0099C32.6933 17.5176 33.9009 17.292 35.3541 17.292C36.2035 17.2922 37.0517 17.3539 37.8922 17.4766C38.4965 17.5586 39.0879 17.7171 39.6524 17.9484C39.7423 17.9803 39.8159 18.0467 39.8571 18.133C39.8807 18.2131 39.8944 18.2958 39.898 18.3792V21.7228C39.8983 21.7626 39.8892 21.802 39.8714 21.8377C39.8536 21.8733 39.8277 21.9042 39.7957 21.9279C39.6766 21.9708 39.5463 21.9708 39.4272 21.9279Z" fill="#31A8FF"/>
</g>
<defs>
<clipPath id="clip0_172_4331">
<rect width="49.1228" height="48" fill="white" transform="translate(0.128906)"/>
</clipPath>
</defs>
</svg>
