<svg width="49" height="48" viewBox="0 0 49 48" fill="none" xmlns="http://www.w3.org/2000/svg">
<path fill-rule="evenodd" clip-rule="evenodd" d="M17.7278 0C15.0744 0.00195718 12.927 2.15094 12.929 4.79901C12.927 7.44707 15.0764 9.59606 17.7298 9.59801H22.5305V4.80096C22.5325 2.1529 20.3831 0.00391436 17.7278 0C17.7298 0 17.7298 0 17.7278 0V0ZM17.7278 12.8H4.92968C2.27631 12.8019 0.126951 14.9509 0.128912 17.599C0.124989 20.247 2.27435 22.396 4.92772 22.3999H17.7278C20.3812 22.398 22.5305 20.249 22.5286 17.6009C22.5305 14.9509 20.3812 12.8019 17.7278 12.8Z" fill="#36C5F0"/>
<path fill-rule="evenodd" clip-rule="evenodd" d="M48.1292 17.599C48.1312 14.9509 45.9818 12.8019 43.3284 12.8C40.675 12.8019 38.5257 14.9509 38.5276 17.599V22.3999H43.3284C45.9818 22.398 48.1312 20.249 48.1292 17.599ZM35.3291 17.599V4.79901C35.331 2.1529 33.1836 0.00391436 30.5303 0C27.8769 0.00195718 25.7275 2.15094 25.7295 4.79901V17.599C25.7256 20.247 27.8749 22.396 30.5283 22.3999C33.1817 22.398 35.331 20.249 35.3291 17.599Z" fill="#2EB67D"/>
<path fill-rule="evenodd" clip-rule="evenodd" d="M30.5283 47.9995C33.1817 47.9976 35.331 45.8486 35.3291 43.2005C35.331 40.5525 33.1817 38.4035 30.5283 38.4015H25.7275V43.2005C25.7256 45.8466 27.8749 47.9956 30.5283 47.9995ZM30.5283 35.1976H43.3284C45.9818 35.1957 48.1311 33.0467 48.1292 30.3986C48.1331 27.7506 45.9837 25.6016 43.3304 25.5977H30.5303C27.8769 25.5996 25.7275 27.7486 25.7295 30.3967C25.7275 33.0467 27.8749 35.1957 30.5283 35.1976Z" fill="#ECB22E"/>
<path fill-rule="evenodd" clip-rule="evenodd" d="M0.128908 30.3991C0.126946 33.0472 2.27631 35.1962 4.92968 35.1981C7.58305 35.1962 9.73241 33.0472 9.73045 30.3991V25.6001H4.92968C2.27631 25.6021 0.126946 27.751 0.128908 30.3991ZM12.929 30.3991V43.1991C12.9251 45.8472 15.0744 47.9961 17.7278 48.0001C20.3812 47.9981 22.5305 45.8491 22.5286 43.201V30.403C22.5325 27.755 20.3831 25.606 17.7298 25.6021C15.0744 25.6021 12.927 27.751 12.929 30.3991C12.929 30.4011 12.929 30.3991 12.929 30.3991Z" fill="#E01E5A"/>
</svg>
