<svg width="49" height="48" viewBox="0 0 49 48" fill="none" xmlns="http://www.w3.org/2000/svg">
<g clip-path="url(#clip0_227_5560)">
<mask id="mask0_227_5560" style="mask-type:alpha" maskUnits="userSpaceOnUse" x="0" y="0" width="49" height="48">
<path d="M34.1722 47.7364C34.9311 48.0321 35.7967 48.0131 36.5628 47.6445L46.4842 42.8706C47.5267 42.3689 48.1897 41.3136 48.1897 40.1561V7.78526C48.1897 6.62773 47.5267 5.57262 46.4842 5.07096L36.5628 0.296791C35.5574 -0.186977 34.3807 -0.0684841 33.4984 0.57301C33.3723 0.66465 33.2522 0.766967 33.1397 0.879723L14.1461 18.2078L5.87297 11.9278C5.10282 11.3432 4.02559 11.3911 3.31031 12.0418L0.65684 14.4555C-0.218083 15.2514 -0.219087 16.6278 0.654674 17.425L7.82943 23.9706L0.654674 30.5163C-0.219087 31.3135 -0.218083 32.6899 0.65684 33.4858L3.31031 35.8994C4.02559 36.5502 5.10282 36.598 5.87297 36.0135L14.1461 29.7334L33.1397 47.0616C33.4401 47.3622 33.7928 47.5886 34.1722 47.7364ZM36.1496 13.031L21.7379 23.9706L36.1496 34.9102V13.031Z" fill="white"/>
</mask>
<g mask="url(#mask0_227_5560)">
<path d="M46.5137 5.07849L36.5845 0.297743C35.4353 -0.255626 34.0617 -0.0222022 33.1597 0.879774L0.655071 30.5164C-0.21922 31.3136 -0.218215 32.69 0.657239 33.4859L3.31232 35.8995C4.02805 36.5503 5.10593 36.5981 5.87654 36.0136L45.0196 6.31873C46.3328 5.32252 48.2189 6.25914 48.2189 7.90745V7.79217C48.2189 6.63515 47.5561 5.58041 46.5137 5.07849Z" fill="#0065A9"/>
<path d="M46.5137 42.8628L36.5845 47.6436C35.4353 48.1968 34.0617 47.9634 33.1597 47.0616L0.655071 17.4249C-0.21922 16.6278 -0.218215 15.2513 0.657239 14.4554L3.31232 12.0417C4.02805 11.3911 5.10593 11.3432 5.87654 11.9278L45.0196 41.6225C46.3328 42.6187 48.2189 41.6822 48.2189 40.0338V40.1492C48.2189 41.3061 47.5561 42.3608 46.5137 42.8628Z" fill="#007ACC"/>
<path d="M36.5532 47.6473C35.4036 48.2002 34.03 47.9666 33.1279 47.0645C34.2393 48.1759 36.1398 47.3887 36.1398 45.8169V2.1302C36.1398 0.558382 34.2393 -0.228794 33.1279 0.882653C34.03 -0.019406 35.4036 -0.253159 36.5532 0.299722L46.4806 5.0739C47.5239 5.57556 48.1872 6.63067 48.1872 7.7882V40.1591C48.1872 41.3166 47.5239 42.3717 46.4806 42.8734L36.5532 47.6473Z" fill="#1F9CF0"/>
<path d="M34.1722 47.7364C34.9312 48.032 35.7967 48.0131 36.5627 47.6446L46.4841 42.8704C47.5268 42.3687 48.1898 41.3136 48.1898 40.1562V7.78526C48.1898 6.62773 47.5268 5.57262 46.4843 5.07095L36.5627 0.296792C35.5575 -0.186978 34.3808 -0.0684844 33.4983 0.57301C33.3724 0.664649 33.2523 0.766966 33.1395 0.879722L14.1461 18.2078L5.87296 11.9278C5.10283 11.3432 4.02558 11.3911 3.3103 12.0417L0.65684 14.4555C-0.218083 15.2514 -0.219087 16.6278 0.654674 17.425L7.82944 23.9706L0.654674 30.5163C-0.219087 31.3135 -0.218083 32.6899 0.65684 33.4858L3.3103 35.8995C4.02558 36.5502 5.10283 36.598 5.87296 36.0135L14.1461 29.7334L33.1395 47.0616C33.4399 47.3622 33.7929 47.5887 34.1722 47.7364ZM36.1497 13.031L21.7379 23.9706L36.1497 34.9103V13.031Z" fill="url(#paint0_linear_227_5560)" fill-opacity="0.25"/>
</g>
</g>
<defs>
<linearGradient id="paint0_linear_227_5560" x1="24.0949" y1="-1.8776e-07" x2="24.0949" y2="47.9412" gradientUnits="userSpaceOnUse">
<stop stop-color="white"/>
<stop offset="1" stop-color="white" stop-opacity="0"/>
</linearGradient>
<clipPath id="clip0_227_5560">
<rect width="48.378" height="48" fill="white"/>
</clipPath>
</defs>
</svg>
