<svg width="49" height="48" viewBox="0 0 49 48" fill="none" xmlns="http://www.w3.org/2000/svg">
<rect x="6.71875" y="5.64746" width="36.7059" height="36.7059" rx="18.3529" fill="white"/>
<circle cx="24.3652" cy="24" r="24" fill="#4353FF"/>
<path d="M31.8963 19.2879C31.8963 19.2879 29.3184 27.3728 29.1078 28.0404C28.4586 22.9734 27.8033 17.9072 27.1419 12.8418C22.7491 12.8418 20.4003 15.9682 19.1591 19.2681L15.7611 28.0603C15.7412 27.4297 15.2842 19.3634 15.2842 19.3634C15.014 15.3204 11.31 12.859 8.31348 12.859L11.9419 34.8496C16.544 34.8297 19.0253 31.7219 20.3248 28.422C20.3248 28.422 23.0935 21.2711 23.2074 20.9465C23.2273 21.2512 25.1945 34.8482 25.1945 34.8482C29.8152 34.8482 32.2977 31.9312 33.6331 28.7465L40.107 12.8603C35.5433 12.8603 33.1376 15.9682 31.8963 19.2866V19.2879Z" fill="white"/>
</svg>
