<svg width="51" height="48" viewBox="0 0 51 48" fill="none" xmlns="http://www.w3.org/2000/svg">
<g clip-path="url(#clip0_172_4338)">
<path d="M9.55096 3.86887e-06H41.3458C42.491 -0.00107545 43.6251 0.223684 44.6833 0.66142C45.7415 1.09916 46.703 1.74127 47.5128 2.55102C48.3225 3.36078 48.9646 4.32226 49.4024 5.38046C49.8401 6.43866 50.0649 7.57279 50.0638 8.71795V39.2821C50.0649 40.4272 49.8401 41.5613 49.4024 42.6195C48.9646 43.6777 48.3225 44.6392 47.5128 45.449C46.703 46.2587 45.7415 46.9009 44.6833 47.3386C43.6251 47.7763 42.491 48.0011 41.3458 48H9.55096C8.4058 48.0011 7.27167 47.7763 6.21347 47.3386C5.15527 46.9009 4.19378 46.2587 3.38403 45.449C2.57428 44.6392 1.93216 43.6777 1.49443 42.6195C1.05669 41.5613 0.831932 40.4272 0.833012 39.2821V8.71795C0.831932 7.57279 1.05669 6.43866 1.49443 5.38046C1.93216 4.32226 2.57428 3.36078 3.38403 2.55102C4.19378 1.74127 5.15527 1.09916 6.21347 0.66142C7.27167 0.223684 8.4058 -0.00107545 9.55096 3.86887e-06Z" fill="#470137"/>
<path d="M26.7204 12.6156L20.5665 22.7694L27.1306 33.5387C27.1738 33.613 27.1884 33.7005 27.1716 33.7848C27.1511 33.8669 27.0691 33.8053 26.946 33.8258H22.2486C21.9204 33.8258 21.6947 33.8053 21.5511 33.6002C21.1203 32.7387 20.6691 31.8976 20.2383 31.0361C19.8075 30.1746 19.3357 29.3335 18.8434 28.4515C18.3511 27.5694 17.8588 26.6874 17.3665 25.7848H17.3255C16.8947 26.6669 16.4229 27.5489 15.9511 28.431C15.4793 29.313 15.0075 30.1951 14.5562 31.0566C14.105 31.9181 13.6127 32.8002 13.1409 33.6412C13.0588 33.8463 12.8947 33.8669 12.6691 33.8669H8.15625C8.07419 33.8669 8.01266 33.9079 8.01266 33.8053C8.0035 33.7669 8.00242 33.727 8.00948 33.6882C8.01654 33.6494 8.0316 33.6124 8.05368 33.5797L14.4332 23.1181L8.21778 12.5951C8.15625 12.513 8.13573 12.431 8.17676 12.3899C8.20177 12.3607 8.2335 12.338 8.26922 12.3237C8.30495 12.3094 8.34361 12.304 8.38189 12.3079H13.0383C13.1353 12.31 13.2317 12.3238 13.3255 12.3489C13.4077 12.3931 13.478 12.4564 13.5306 12.5335C13.9203 13.4156 14.3716 14.2976 14.8434 15.1797C15.3152 16.0617 15.8075 16.9233 16.3203 17.7848C16.8332 18.6463 17.2639 19.5079 17.6947 20.3899H17.7357C18.1665 19.4874 18.6178 18.6053 19.0691 17.7438C19.5203 16.8822 19.9921 16.0207 20.4639 15.1592C20.9357 14.2976 21.387 13.4156 21.8383 12.5746C21.8539 12.4938 21.8974 12.4211 21.9614 12.3694C22.0426 12.3246 22.1371 12.3101 22.228 12.3284H26.5562C26.5805 12.323 26.6056 12.3224 26.6301 12.3266C26.6545 12.3309 26.6779 12.34 26.6989 12.3533C26.7199 12.3667 26.738 12.384 26.7522 12.4044C26.7665 12.4247 26.7766 12.4477 26.7819 12.472C26.8024 12.4925 26.7614 12.5746 26.7204 12.6156Z" fill="#FF61F6"/>
<path d="M36.1972 34.2565C34.6767 34.2814 33.1699 33.9661 31.787 33.3334C30.5003 32.7318 29.422 31.7606 28.6895 30.5437C27.9306 29.2924 27.5613 27.7334 27.5613 25.8667C27.5405 24.3487 27.9304 22.8533 28.6895 21.5385C29.468 20.2023 30.5955 19.1032 31.9511 18.3591C33.387 17.5591 35.1101 17.1693 37.1408 17.1693C37.2847 17.1677 37.4285 17.1745 37.5716 17.1898C37.7562 17.2103 37.9613 17.2103 38.2075 17.2308V10.7488C38.2075 10.6052 38.269 10.5232 38.4126 10.5232H42.5767C42.6227 10.5169 42.6693 10.5283 42.7073 10.5549C42.7454 10.5815 42.772 10.6214 42.7819 10.6667V30.236C42.7819 30.6052 42.8024 31.0155 42.8229 31.4667C42.8434 31.918 42.8844 32.3078 42.9049 32.6565C42.9093 32.7258 42.8919 32.7947 42.8551 32.8535C42.8183 32.9124 42.764 32.9583 42.6998 32.9847C41.6254 33.4363 40.5039 33.7665 39.3562 33.9693C38.3137 34.1573 37.2566 34.2534 36.1972 34.2565ZM38.2075 30.1539V21.1283C38.0248 21.0842 37.84 21.05 37.6536 21.0257C37.428 21.0052 37.2024 20.9847 36.9767 20.9847C36.1727 20.9756 35.378 21.1585 34.6588 21.518C33.9578 21.8673 33.3577 22.3898 32.9152 23.036C32.4639 23.6924 32.2383 24.5744 32.2383 25.6411C32.2204 26.3611 32.3387 27.0779 32.587 27.7539C32.7854 28.3006 33.1003 28.7976 33.5101 29.2103C33.9055 29.5877 34.3829 29.8686 34.9049 30.0308C35.4544 30.2108 36.0293 30.3009 36.6075 30.2975C36.9152 30.2975 37.2024 30.277 37.469 30.2565C37.7197 30.2744 37.9712 30.2394 38.2075 30.1539Z" fill="#FF61F6"/>
</g>
<defs>
<clipPath id="clip0_172_4338">
<rect width="49.2308" height="48" fill="white" transform="translate(0.833008)"/>
</clipPath>
</defs>
</svg>
