<svg width="44" height="32" viewBox="0 0 44 32" fill="none" xmlns="http://www.w3.org/2000/svg">
<path d="M35.1288 31.0667L27.3529 16.2759C26.0611 16.4588 24.6743 16.7077 23.2215 17.0553C21.8741 17.3774 20.5451 17.7719 19.2402 18.2373L25.7318 31.6339C25.7818 31.7424 25.8617 31.8345 25.9622 31.8993C26.0626 31.9641 26.1795 31.999 26.299 31.9998H34.5836C34.6921 31.9977 34.7982 31.9678 34.8918 31.9129C34.9854 31.858 35.0633 31.7799 35.118 31.6862C35.1728 31.5925 35.2025 31.4864 35.2044 31.3779C35.2063 31.2694 35.1803 31.1622 35.1288 31.0667Z" fill="#0C3636"/>
<path d="M18.9551 0.328888C18.9015 0.231205 18.8232 0.14937 18.7279 0.0916464C18.6327 0.0339228 18.5239 0.00235381 18.4125 0.000126602C18.3012 -0.0021006 18.1912 0.0250928 18.0937 0.0789615C17.9962 0.13283 17.9147 0.211467 17.8573 0.306932L0.0182964 31.0412L0 31.0961C2.027 27.8095 4.36504 24.7252 6.9819 21.8857L14.0882 10.0333C14.1472 9.93868 14.23 9.86129 14.3285 9.80897C14.4269 9.75665 14.5374 9.73125 14.6488 9.73534C14.7602 9.73942 14.8685 9.77285 14.9629 9.83223C15.0572 9.89162 15.1342 9.97487 15.186 10.0735L16.9461 13.6011C19.1969 12.1892 21.5602 10.9652 24.0122 9.94181L18.9551 0.328888Z" fill="#0C3636"/>
<path d="M3.65918 27.1954L4.02511 26.8295L4.46056 26.0977C4.17514 26.4672 3.90069 26.8405 3.65918 27.1954Z" fill="white"/>
<path d="M28.5425 8.59145L28.6449 8.69025L29.4061 8.46338L28.5425 8.59145Z" fill="white"/>
<path d="M28.1288 9.24658C26.8225 9.66374 25.5673 10.1248 24.3744 10.6188C21.9159 11.6324 19.5472 12.8516 17.2937 14.2635C14.2645 16.1684 11.4585 18.4073 8.92858 20.938C7.32161 22.5461 5.82982 24.2653 4.46426 26.0829L4.02881 26.8148C8.20115 22.6125 13.2918 19.4359 18.9001 17.5348C20.2704 17.0594 21.6639 16.6539 23.0754 16.32C24.4403 15.998 25.7539 15.7528 26.9835 15.5881C28.4472 15.3686 29.8157 15.2405 31.0087 15.171L31.4697 12.496L28.1288 9.24658Z" fill="#0C3636"/>
<path d="M43.4834 8.59174L38.3165 7.84159L36.0038 3.15771L34.1156 6.98532L33.9107 7.40248L33.7021 7.8233V7.84159L33.3911 7.8855L29.3915 8.46367L28.6304 8.69055L28.9414 8.99427L32.2677 12.2364L31.7737 15.1162L31.7078 15.4822L31.642 15.8481L31.3822 17.3594L34.3425 15.8042L35.0195 15.4383L36.0038 14.9186L36.3697 15.1162L40.6145 17.3484L39.7326 12.2035L43.4834 8.59174Z" fill="#0C3636"/>
</svg>
