<svg width="115" height="21" viewBox="0 0 115 21" fill="none" xmlns="http://www.w3.org/2000/svg">
<path d="M14.877 16H9.10547V15.3066C9.61328 15.2741 10.0332 15.209 10.3652 15.1113C10.7038 15.0137 10.873 14.8932 10.873 14.75C10.873 14.6914 10.8665 14.6198 10.8535 14.5352C10.8405 14.4505 10.821 14.3757 10.7949 14.3105L9.64258 11.2051H4.78906C4.60677 11.6608 4.45703 12.0579 4.33984 12.3965C4.22917 12.735 4.12826 13.0475 4.03711 13.334C3.95247 13.6139 3.89388 13.8418 3.86133 14.0176C3.82878 14.1934 3.8125 14.3366 3.8125 14.4473C3.8125 14.7077 4.01758 14.9095 4.42773 15.0527C4.83789 15.196 5.30013 15.2806 5.81445 15.3066V16H0.599609V15.3066C0.76888 15.2936 0.980469 15.2578 1.23438 15.1992C1.48828 15.1341 1.69661 15.0495 1.85938 14.9453C2.11979 14.7695 2.32161 14.5872 2.46484 14.3984C2.60807 14.2031 2.74805 13.9362 2.88477 13.5977C3.58138 11.8594 4.34961 9.90625 5.18945 7.73828C6.0293 5.57031 6.77799 3.63997 7.43555 1.94727H8.2168L12.8359 13.9004C12.9336 14.1543 13.0443 14.3594 13.168 14.5156C13.2917 14.6719 13.4642 14.8249 13.6855 14.9746C13.8353 15.0658 14.0306 15.1439 14.2715 15.209C14.5124 15.2676 14.7142 15.3001 14.877 15.3066V16ZM9.29102 10.3359L7.19141 4.96484L5.13086 10.3359H9.29102ZM25.7559 16H21.0391V15.3555C21.1888 15.3424 21.3516 15.3294 21.5273 15.3164C21.7096 15.3034 21.8594 15.2773 21.9766 15.2383C22.1589 15.1797 22.2923 15.0788 22.377 14.9355C22.4681 14.7858 22.5137 14.5938 22.5137 14.3594V9.4082C22.5137 8.72461 22.3509 8.19727 22.0254 7.82617C21.7064 7.45508 21.3158 7.26953 20.8535 7.26953C20.5085 7.26953 20.1927 7.32487 19.9062 7.43555C19.6198 7.53971 19.3659 7.66992 19.1445 7.82617C18.9297 7.97591 18.7572 8.13867 18.627 8.31445C18.5033 8.48372 18.4121 8.62044 18.3535 8.72461V14.2617C18.3535 14.4831 18.3991 14.6654 18.4902 14.8086C18.5814 14.9518 18.7181 15.0625 18.9004 15.1406C19.0371 15.2057 19.1836 15.2546 19.3398 15.2871C19.5026 15.3197 19.6686 15.3424 19.8379 15.3555V16H15.1211V15.3555C15.2708 15.3424 15.4238 15.3294 15.5801 15.3164C15.7428 15.3034 15.8828 15.2773 16 15.2383C16.1823 15.1797 16.3158 15.0788 16.4004 14.9355C16.4915 14.7858 16.5371 14.5938 16.5371 14.3594V8.41211C16.5371 8.19076 16.4883 7.98893 16.3906 7.80664C16.2995 7.61784 16.1693 7.46484 16 7.34766C15.8763 7.26953 15.7298 7.21419 15.5605 7.18164C15.3913 7.14258 15.209 7.11654 15.0137 7.10352V6.46875L18.2168 6.25391L18.3535 6.39062V7.74805H18.4023C18.5586 7.5918 18.7539 7.40625 18.9883 7.19141C19.2227 6.97005 19.444 6.79102 19.6523 6.6543C19.8932 6.49805 20.1797 6.36784 20.5117 6.26367C20.8438 6.15951 21.2181 6.10742 21.6348 6.10742C22.5592 6.10742 23.2428 6.39714 23.6855 6.97656C24.1348 7.54948 24.3594 8.31445 24.3594 9.27148V14.2812C24.3594 14.5091 24.3984 14.6947 24.4766 14.8379C24.5547 14.9746 24.6882 15.082 24.877 15.1602C25.0332 15.2253 25.1667 15.2708 25.2773 15.2969C25.3945 15.3229 25.554 15.3424 25.7559 15.3555V16ZM37.1426 16H34.2324C33.7246 15.2643 33.181 14.4766 32.6016 13.6367C32.0221 12.7969 31.4199 11.9798 30.7949 11.1855L29.9941 11.9375V14.2227C29.9941 14.457 30.0365 14.6523 30.1211 14.8086C30.2057 14.9583 30.3424 15.069 30.5312 15.1406C30.6875 15.2057 30.8372 15.2546 30.9805 15.2871C31.1237 15.3197 31.2897 15.3424 31.4785 15.3555V16H26.752V15.3555C26.9017 15.3424 27.0579 15.3294 27.2207 15.3164C27.3835 15.2969 27.5202 15.2708 27.6309 15.2383C27.8132 15.1797 27.9499 15.0788 28.041 14.9355C28.1322 14.7858 28.1777 14.5938 28.1777 14.3594V3.16797C28.1777 2.92708 28.1257 2.70247 28.0215 2.49414C27.9238 2.2793 27.7936 2.11654 27.6309 2.00586C27.4941 1.90169 27.2793 1.83333 26.9863 1.80078C26.6999 1.76823 26.4688 1.74544 26.293 1.73242V1.10742L29.8574 0.882812L29.9941 1.0293V11.2148C30.502 10.707 31.0488 10.1634 31.6348 9.58398C32.2272 8.99805 32.7253 8.47721 33.1289 8.02148C33.181 7.96289 33.2363 7.88802 33.2949 7.79688C33.36 7.69922 33.3926 7.62109 33.3926 7.5625C33.3926 7.38672 33.2493 7.25651 32.9629 7.17188C32.6829 7.08724 32.4128 7.02865 32.1523 6.99609V6.37109H36.3906V6.97656C35.8438 7.13932 35.3587 7.3444 34.9355 7.5918C34.5189 7.83268 34.1999 8.05078 33.9785 8.24609C33.8223 8.3763 33.6009 8.58789 33.3145 8.88086C33.028 9.17383 32.6276 9.55794 32.1133 10.0332C32.6471 10.6908 33.2461 11.4785 33.9102 12.3965C34.5807 13.3145 35.069 13.9785 35.375 14.3887C35.6615 14.7728 35.9186 15.0234 36.1465 15.1406C36.3743 15.2578 36.7064 15.3294 37.1426 15.3555V16ZM42.3379 16H37.6797V15.3555C37.8294 15.3424 37.9824 15.3294 38.1387 15.3164C38.3014 15.3034 38.4414 15.2773 38.5586 15.2383C38.7409 15.1797 38.8743 15.0788 38.959 14.9355C39.0501 14.7858 39.0957 14.5938 39.0957 14.3594V8.41211C39.0957 8.20378 39.0469 8.01497 38.9492 7.8457C38.8581 7.66992 38.7279 7.52344 38.5586 7.40625C38.4349 7.32812 38.2559 7.26302 38.0215 7.21094C37.7871 7.15234 37.5723 7.11654 37.377 7.10352V6.46875L40.7754 6.25391L40.9121 6.39062V14.2422C40.9121 14.4701 40.9544 14.6589 41.0391 14.8086C41.1302 14.9583 41.2702 15.069 41.459 15.1406C41.6022 15.1992 41.7422 15.248 41.8789 15.2871C42.0156 15.3197 42.1686 15.3424 42.3379 15.3555V16ZM41.1074 2.45508C41.1074 2.82617 40.9837 3.15169 40.7363 3.43164C40.4954 3.70508 40.196 3.8418 39.8379 3.8418C39.5059 3.8418 39.2161 3.71159 38.9688 3.45117C38.7279 3.18424 38.6074 2.88151 38.6074 2.54297C38.6074 2.1849 38.7279 1.8724 38.9688 1.60547C39.2161 1.33854 39.5059 1.20508 39.8379 1.20508C40.209 1.20508 40.5117 1.33203 40.7461 1.58594C40.987 1.83333 41.1074 2.12305 41.1074 2.45508ZM49.4668 15.5801C49.0436 15.7559 48.6432 15.9023 48.2656 16.0195C47.888 16.1432 47.4258 16.2051 46.8789 16.2051C46.0716 16.2051 45.502 16.0033 45.1699 15.5996C44.8444 15.1895 44.6816 14.6133 44.6816 13.8711V7.34766H42.9434V6.41016H44.7207V3.41211H46.498V6.41016H49.2617V7.34766H46.5176V12.7285C46.5176 13.1322 46.5306 13.4707 46.5566 13.7441C46.5892 14.0111 46.6608 14.2454 46.7715 14.4473C46.8757 14.6361 47.0319 14.7793 47.2402 14.877C47.4486 14.9746 47.7285 15.0234 48.0801 15.0234C48.2428 15.0234 48.4805 15.0104 48.793 14.9844C49.112 14.9518 49.3366 14.9128 49.4668 14.8672V15.5801ZM59.5547 15.8242C59.2487 15.9349 58.9785 16.0228 58.7441 16.0879C58.5163 16.1595 58.2559 16.1953 57.9629 16.1953C57.4551 16.1953 57.0482 16.0781 56.7422 15.8438C56.4427 15.6029 56.2507 15.2546 56.166 14.7988H56.1074C55.6842 15.2676 55.2285 15.6257 54.7402 15.873C54.2585 16.1204 53.6758 16.2441 52.9922 16.2441C52.2695 16.2441 51.6738 16.0228 51.2051 15.5801C50.7428 15.1374 50.5117 14.5579 50.5117 13.8418C50.5117 13.4707 50.5638 13.1387 50.668 12.8457C50.7721 12.5527 50.9284 12.2891 51.1367 12.0547C51.2995 11.8594 51.5143 11.6868 51.7812 11.5371C52.0482 11.3809 52.2988 11.2572 52.5332 11.166C52.8262 11.0553 53.4186 10.8503 54.3105 10.5508C55.209 10.2513 55.8145 10.0169 56.127 9.84766V8.88086C56.127 8.79622 56.1074 8.63346 56.0684 8.39258C56.0358 8.15169 55.9609 7.92383 55.8438 7.70898C55.7135 7.4681 55.528 7.25977 55.2871 7.08398C55.0527 6.90169 54.7174 6.81055 54.2812 6.81055C53.9818 6.81055 53.7018 6.86263 53.4414 6.9668C53.1875 7.06445 53.0085 7.16862 52.9043 7.2793C52.9043 7.40951 52.9336 7.60156 52.9922 7.85547C53.0573 8.10938 53.0898 8.34375 53.0898 8.55859C53.0898 8.78646 52.9857 8.99479 52.7773 9.18359C52.5755 9.3724 52.2923 9.4668 51.9277 9.4668C51.6022 9.4668 51.3613 9.35286 51.2051 9.125C51.0553 8.89062 50.9805 8.63021 50.9805 8.34375C50.9805 8.04427 51.0846 7.75781 51.293 7.48438C51.5078 7.21094 51.7845 6.9668 52.123 6.75195C52.416 6.56966 52.7708 6.41667 53.1875 6.29297C53.6042 6.16276 54.0111 6.09766 54.4082 6.09766C54.9551 6.09766 55.4303 6.13672 55.834 6.21484C56.2441 6.28646 56.6152 6.44596 56.9473 6.69336C57.2793 6.93424 57.5299 7.26302 57.6992 7.67969C57.875 8.08984 57.9629 8.62044 57.9629 9.27148C57.9629 10.2025 57.9531 11.0293 57.9336 11.752C57.9141 12.4681 57.9043 13.2526 57.9043 14.1055C57.9043 14.3594 57.9466 14.5612 58.0312 14.7109C58.1224 14.8607 58.2591 14.9876 58.4414 15.0918C58.5391 15.1504 58.6921 15.1829 58.9004 15.1895C59.1152 15.196 59.3333 15.1992 59.5547 15.1992V15.8242ZM56.1465 10.668C55.5931 10.8307 55.1081 10.9902 54.6914 11.1465C54.2747 11.3027 53.8874 11.498 53.5293 11.7324C53.2038 11.9538 52.9466 12.2174 52.7578 12.5234C52.569 12.8229 52.4746 13.181 52.4746 13.5977C52.4746 14.138 52.6146 14.5352 52.8945 14.7891C53.181 15.043 53.5423 15.1699 53.9785 15.1699C54.4408 15.1699 54.8477 15.0592 55.1992 14.8379C55.5508 14.61 55.847 14.3431 56.0879 14.0371L56.1465 10.668ZM78.5098 16H72.7383V15.3066C73.2461 15.2741 73.666 15.209 73.998 15.1113C74.3366 15.0137 74.5059 14.8932 74.5059 14.75C74.5059 14.6914 74.4993 14.6198 74.4863 14.5352C74.4733 14.4505 74.4538 14.3757 74.4277 14.3105L73.2754 11.2051H68.4219C68.2396 11.6608 68.0898 12.0579 67.9727 12.3965C67.862 12.735 67.7611 13.0475 67.6699 13.334C67.5853 13.6139 67.5267 13.8418 67.4941 14.0176C67.4616 14.1934 67.4453 14.3366 67.4453 14.4473C67.4453 14.7077 67.6504 14.9095 68.0605 15.0527C68.4707 15.196 68.9329 15.2806 69.4473 15.3066V16H64.2324V15.3066C64.4017 15.2936 64.6133 15.2578 64.8672 15.1992C65.1211 15.1341 65.3294 15.0495 65.4922 14.9453C65.7526 14.7695 65.9544 14.5872 66.0977 14.3984C66.2409 14.2031 66.3809 13.9362 66.5176 13.5977C67.2142 11.8594 67.9824 9.90625 68.8223 7.73828C69.6621 5.57031 70.4108 3.63997 71.0684 1.94727H71.8496L76.4688 13.9004C76.5664 14.1543 76.6771 14.3594 76.8008 14.5156C76.9245 14.6719 77.097 14.8249 77.3184 14.9746C77.4681 15.0658 77.6634 15.1439 77.9043 15.209C78.1452 15.2676 78.347 15.3001 78.5098 15.3066V16ZM72.9238 10.3359L70.8242 4.96484L68.7637 10.3359H72.9238ZM87.5527 7.51367C87.9368 7.9694 88.2331 8.5 88.4414 9.10547C88.6562 9.70443 88.7637 10.3913 88.7637 11.166C88.7637 11.9277 88.6367 12.6243 88.3828 13.2559C88.1289 13.8809 87.7936 14.4147 87.377 14.8574C86.9408 15.3066 86.4557 15.6517 85.9219 15.8926C85.388 16.1335 84.8216 16.2539 84.2227 16.2539C83.6432 16.2539 83.168 16.1888 82.7969 16.0586C82.4258 15.9284 82.123 15.7754 81.8887 15.5996H81.8105V18.4902C81.8105 18.7246 81.8561 18.9199 81.9473 19.0762C82.0384 19.2324 82.1784 19.3464 82.3672 19.418C82.5234 19.4766 82.7448 19.5319 83.0312 19.584C83.3242 19.6426 83.5651 19.6751 83.7539 19.6816V20.3359H78.373V19.6816C78.5749 19.6686 78.7702 19.6523 78.959 19.6328C79.1478 19.6133 79.3171 19.5807 79.4668 19.5352C79.6621 19.4701 79.7988 19.3561 79.877 19.1934C79.9551 19.0306 79.9941 18.8385 79.9941 18.6172V8.37305C79.9941 8.17773 79.9453 7.98893 79.8477 7.80664C79.75 7.62435 79.623 7.47786 79.4668 7.36719C79.3496 7.28906 79.1868 7.23047 78.9785 7.19141C78.7702 7.14583 78.5684 7.11654 78.373 7.10352V6.46875L81.6543 6.25391L81.791 6.37109V7.45508L81.8691 7.47461C82.2077 7.08398 82.6276 6.75846 83.1289 6.49805C83.6302 6.23763 84.1283 6.10742 84.623 6.10742C85.222 6.10742 85.7689 6.23438 86.2637 6.48828C86.765 6.74219 87.1947 7.08398 87.5527 7.51367ZM85.9609 14.4375C86.2214 14.0339 86.4134 13.5651 86.5371 13.0312C86.6608 12.4974 86.7227 11.9017 86.7227 11.2441C86.7227 10.7624 86.6706 10.2708 86.5664 9.76953C86.4622 9.26823 86.2995 8.83203 86.0781 8.46094C85.8568 8.08333 85.5671 7.77734 85.209 7.54297C84.8509 7.30859 84.4212 7.19141 83.9199 7.19141C83.4382 7.19141 83.028 7.29883 82.6895 7.51367C82.3509 7.72201 82.0579 7.97266 81.8105 8.26562V13.959C81.8691 14.1348 81.9635 14.3171 82.0938 14.5059C82.2305 14.6947 82.3802 14.8574 82.543 14.9941C82.7448 15.1569 82.9629 15.2904 83.1973 15.3945C83.4316 15.4922 83.7181 15.541 84.0566 15.541C84.4212 15.541 84.7728 15.4466 85.1113 15.2578C85.4499 15.0625 85.7331 14.7891 85.9609 14.4375ZM99.3008 15.8242C98.9948 15.9349 98.7246 16.0228 98.4902 16.0879C98.2624 16.1595 98.002 16.1953 97.709 16.1953C97.2012 16.1953 96.7943 16.0781 96.4883 15.8438C96.1888 15.6029 95.9967 15.2546 95.9121 14.7988H95.8535C95.4303 15.2676 94.9746 15.6257 94.4863 15.873C94.0046 16.1204 93.4219 16.2441 92.7383 16.2441C92.0156 16.2441 91.4199 16.0228 90.9512 15.5801C90.4889 15.1374 90.2578 14.5579 90.2578 13.8418C90.2578 13.4707 90.3099 13.1387 90.4141 12.8457C90.5182 12.5527 90.6745 12.2891 90.8828 12.0547C91.0456 11.8594 91.2604 11.6868 91.5273 11.5371C91.7943 11.3809 92.0449 11.2572 92.2793 11.166C92.5723 11.0553 93.1647 10.8503 94.0566 10.5508C94.9551 10.2513 95.5605 10.0169 95.873 9.84766V8.88086C95.873 8.79622 95.8535 8.63346 95.8145 8.39258C95.7819 8.15169 95.707 7.92383 95.5898 7.70898C95.4596 7.4681 95.2741 7.25977 95.0332 7.08398C94.7988 6.90169 94.4635 6.81055 94.0273 6.81055C93.7279 6.81055 93.4479 6.86263 93.1875 6.9668C92.9336 7.06445 92.7546 7.16862 92.6504 7.2793C92.6504 7.40951 92.6797 7.60156 92.7383 7.85547C92.8034 8.10938 92.8359 8.34375 92.8359 8.55859C92.8359 8.78646 92.7318 8.99479 92.5234 9.18359C92.3216 9.3724 92.0384 9.4668 91.6738 9.4668C91.3483 9.4668 91.1074 9.35286 90.9512 9.125C90.8014 8.89062 90.7266 8.63021 90.7266 8.34375C90.7266 8.04427 90.8307 7.75781 91.0391 7.48438C91.2539 7.21094 91.5306 6.9668 91.8691 6.75195C92.1621 6.56966 92.5169 6.41667 92.9336 6.29297C93.3503 6.16276 93.7572 6.09766 94.1543 6.09766C94.7012 6.09766 95.1764 6.13672 95.5801 6.21484C95.9902 6.28646 96.3613 6.44596 96.6934 6.69336C97.0254 6.93424 97.276 7.26302 97.4453 7.67969C97.6211 8.08984 97.709 8.62044 97.709 9.27148C97.709 10.2025 97.6992 11.0293 97.6797 11.752C97.6602 12.4681 97.6504 13.2526 97.6504 14.1055C97.6504 14.3594 97.6927 14.5612 97.7773 14.7109C97.8685 14.8607 98.0052 14.9876 98.1875 15.0918C98.2852 15.1504 98.4382 15.1829 98.6465 15.1895C98.8613 15.196 99.0794 15.1992 99.3008 15.1992V15.8242ZM95.8926 10.668C95.3392 10.8307 94.8542 10.9902 94.4375 11.1465C94.0208 11.3027 93.6335 11.498 93.2754 11.7324C92.9499 11.9538 92.6927 12.2174 92.5039 12.5234C92.3151 12.8229 92.2207 13.181 92.2207 13.5977C92.2207 14.138 92.3607 14.5352 92.6406 14.7891C92.9271 15.043 93.2884 15.1699 93.7246 15.1699C94.1868 15.1699 94.5938 15.0592 94.9453 14.8379C95.2969 14.61 95.5931 14.3431 95.834 14.0371L95.8926 10.668ZM104.77 16H100.072V15.3555C100.222 15.3424 100.382 15.3294 100.551 15.3164C100.72 15.2969 100.86 15.2708 100.971 15.2383C101.153 15.1797 101.29 15.0788 101.381 14.9355C101.472 14.7858 101.518 14.5938 101.518 14.3594V3.20703C101.518 2.97266 101.465 2.75456 101.361 2.55273C101.264 2.3444 101.133 2.18164 100.971 2.06445C100.854 1.98633 100.639 1.91471 100.326 1.84961C100.014 1.78451 99.763 1.74544 99.5742 1.73242V1.10742L103.197 0.882812L103.334 1.0293V14.2422C103.334 14.4701 103.376 14.6589 103.461 14.8086C103.546 14.9518 103.682 15.0625 103.871 15.1406C104.014 15.2057 104.154 15.2546 104.291 15.2871C104.434 15.3197 104.594 15.3424 104.77 15.3555V16ZM114.535 13.7344C114.132 14.5026 113.591 15.1146 112.914 15.5703C112.237 16.026 111.459 16.2539 110.58 16.2539C109.805 16.2539 109.125 16.1172 108.539 15.8438C107.96 15.5703 107.481 15.1992 107.104 14.7305C106.726 14.2617 106.443 13.7148 106.254 13.0898C106.072 12.4648 105.98 11.804 105.98 11.1074C105.98 10.4824 106.078 9.87044 106.273 9.27148C106.475 8.66602 106.768 8.1224 107.152 7.64062C107.523 7.17839 107.982 6.80729 108.529 6.52734C109.083 6.24089 109.701 6.09766 110.385 6.09766C111.088 6.09766 111.69 6.20833 112.191 6.42969C112.693 6.65104 113.1 6.95378 113.412 7.33789C113.712 7.70247 113.933 8.13216 114.076 8.62695C114.226 9.12174 114.301 9.65885 114.301 10.2383V10.8828H107.924C107.924 11.5143 107.982 12.0872 108.1 12.6016C108.223 13.1159 108.415 13.5684 108.676 13.959C108.93 14.3366 109.262 14.6361 109.672 14.8574C110.082 15.0723 110.57 15.1797 111.137 15.1797C111.716 15.1797 112.214 15.0462 112.631 14.7793C113.054 14.5059 113.461 14.0176 113.852 13.3145L114.535 13.7344ZM112.377 10.0625C112.377 9.69792 112.344 9.30729 112.279 8.89062C112.221 8.47396 112.123 8.12565 111.986 7.8457C111.837 7.54622 111.632 7.30208 111.371 7.11328C111.111 6.92448 110.775 6.83008 110.365 6.83008C109.682 6.83008 109.112 7.11654 108.656 7.68945C108.207 8.25586 107.963 9.04688 107.924 10.0625H112.377Z" fill="#0C3636"/>
</svg>
