<svg width="838" height="124" viewBox="0 0 838 124" fill="none" xmlns="http://www.w3.org/2000/svg">
<g filter="url(#filter0_d_211_5557)">
<rect x="2" width="834" height="120" fill="#EBF17C"/>
</g>
<path d="M643.184 111.544C639.547 111.544 636.291 111.221 633.416 110.576C630.6 109.989 628.371 109.051 626.728 107.76C625.144 106.528 624.352 105.003 624.352 103.184C624.352 101.365 625.173 99.7227 626.816 98.256C628.459 96.848 630.893 95.7333 634.12 94.912L634.912 96.32C633.797 97.2 632.976 98.1387 632.448 99.136C631.979 100.192 631.744 101.277 631.744 102.392C631.744 104.856 632.859 106.733 635.088 108.024C637.376 109.373 640.456 110.048 644.328 110.048C646.968 110.048 649.315 109.696 651.368 108.992C653.48 108.288 655.123 107.232 656.296 105.824C657.528 104.416 658.144 102.685 658.144 100.632C658.144 98.872 657.499 97.376 656.208 96.144C654.917 94.9707 652.336 94.384 648.464 94.384H643.008C640.603 94.384 638.491 94.12 636.672 93.592C634.912 93.064 633.533 92.2427 632.536 91.128C631.539 89.9547 631.04 88.488 631.04 86.728C631.04 84.264 632.008 82.0933 633.944 80.216C635.88 78.3387 638.755 76.5787 642.568 74.936L643.448 75.64C642.333 76.344 641.277 77.1067 640.28 77.928C639.341 78.6907 638.872 79.688 638.872 80.92C638.872 82.7973 640.045 83.736 642.392 83.736H651.984C655.211 83.736 658.085 84.1173 660.608 84.88C663.189 85.6427 665.213 86.904 666.68 88.664C668.205 90.3653 668.968 92.5947 668.968 95.352C668.968 98.2267 668.029 100.896 666.152 103.36C664.333 105.824 661.517 107.789 657.704 109.256C653.891 110.781 649.051 111.544 643.184 111.544ZM644.064 76.256C640.72 76.256 637.728 75.7573 635.088 74.76C632.448 73.7627 630.365 72.2373 628.84 70.184C627.315 68.1307 626.552 65.4907 626.552 62.264C626.552 59.0373 627.315 56.3973 628.84 54.344C630.365 52.232 632.448 50.7067 635.088 49.768C637.728 48.7707 640.72 48.272 644.064 48.272C647.408 48.272 650.4 48.7707 653.04 49.768C655.68 50.7067 657.763 52.232 659.288 54.344C660.813 56.3973 661.576 59.0373 661.576 62.264C661.576 65.4907 660.813 68.1307 659.288 70.184C657.763 72.2373 655.68 73.7627 653.04 74.76C650.4 75.7573 647.408 76.256 644.064 76.256ZM644.064 74.672C645.648 74.672 646.88 73.792 647.76 72.032C648.64 70.2133 649.08 66.9573 649.08 62.264C649.08 57.5707 648.64 54.344 647.76 52.584C646.88 50.7653 645.648 49.856 644.064 49.856C642.539 49.856 641.307 50.7653 640.368 52.584C639.488 54.344 639.048 57.5707 639.048 62.264C639.048 66.9573 639.488 70.2133 640.368 72.032C641.307 73.792 642.539 74.672 644.064 74.672ZM657.792 55.84L656.032 55.224C656.912 52.936 658.32 51.0293 660.256 49.504C662.251 47.9787 664.392 47.216 666.68 47.216C668.557 47.216 669.965 47.744 670.904 48.8C671.901 49.7973 672.4 51.1173 672.4 52.76C672.4 54.52 671.931 55.84 670.992 56.72C670.053 57.5413 668.997 57.952 667.824 57.952C666.827 57.952 665.888 57.6 665.008 56.896C664.187 56.192 663.717 55.136 663.6 53.728C663.483 52.2613 663.981 50.384 665.096 48.096L665.712 48.624C663.483 49.4453 661.811 50.4133 660.696 51.528C659.581 52.584 658.613 54.0213 657.792 55.84ZM707.489 48.272C709.953 48.272 711.947 48.5947 713.473 49.24C715.057 49.8267 716.289 50.648 717.169 51.704C718.107 52.8187 718.782 54.256 719.193 56.016C719.662 57.776 719.897 60.152 719.897 63.144V86.816C719.897 89.28 720.307 90.952 721.129 91.832C722.009 92.712 723.475 93.152 725.529 93.152V95C724.414 94.9413 722.742 94.8827 720.513 94.824C718.283 94.7067 716.083 94.648 713.913 94.648C711.683 94.648 709.483 94.7067 707.313 94.824C705.201 94.8827 703.587 94.9413 702.473 95V93.152C704.233 93.152 705.465 92.712 706.169 91.832C706.873 90.952 707.225 89.28 707.225 86.816V59.448C707.225 57.9813 707.078 56.72 706.785 55.664C706.491 54.5493 705.963 53.6987 705.201 53.112C704.438 52.4667 703.294 52.144 701.769 52.144C700.185 52.144 698.718 52.584 697.369 53.464C696.078 54.344 695.022 55.576 694.201 57.16C693.438 58.6853 693.057 60.416 693.057 62.352V86.816C693.057 89.28 693.409 90.952 694.113 91.832C694.875 92.712 696.107 93.152 697.809 93.152V95C696.753 94.9413 695.198 94.8827 693.145 94.824C691.15 94.7067 689.067 94.648 686.897 94.648C684.667 94.648 682.379 94.7067 680.033 94.824C677.686 94.8827 675.926 94.9413 674.753 95V93.152C676.806 93.152 678.243 92.712 679.065 91.832C679.945 90.952 680.385 89.28 680.385 86.816V59.096C680.385 56.456 679.974 54.52 679.153 53.288C678.39 51.9973 676.923 51.352 674.753 51.352V49.504C676.63 49.68 678.449 49.768 680.209 49.768C682.673 49.768 684.961 49.68 687.073 49.504C689.243 49.2693 691.238 48.9467 693.057 48.536V56.456C694.523 53.464 696.518 51.352 699.041 50.12C701.563 48.888 704.379 48.272 707.489 48.272ZM751.511 48.272C756.674 48.272 760.722 49.7973 763.655 52.848C766.589 55.8987 768.055 60.8853 768.055 67.808H739.103L738.927 66.136H756.967C757.026 63.2613 756.85 60.6213 756.439 58.216C756.029 55.752 755.383 53.7867 754.503 52.32C753.623 50.8533 752.45 50.12 750.983 50.12C748.93 50.12 747.17 51.4107 745.703 53.992C744.295 56.5733 743.445 60.856 743.151 66.84L743.415 67.368C743.357 68.072 743.298 68.8053 743.239 69.568C743.239 70.3307 743.239 71.1227 743.239 71.944C743.239 75.992 743.797 79.2773 744.911 81.8C746.085 84.3227 747.551 86.1707 749.311 87.344C751.071 88.4587 752.861 89.016 754.679 89.016C755.911 89.016 757.173 88.84 758.463 88.488C759.813 88.0773 761.162 87.3733 762.511 86.376C763.861 85.32 765.122 83.8533 766.295 81.976L767.879 82.504C767.175 84.7333 766.061 86.904 764.535 89.016C763.01 91.128 761.074 92.8587 758.727 94.208C756.381 95.5573 753.565 96.232 750.279 96.232C746.29 96.232 742.77 95.3813 739.719 93.68C736.669 91.9787 734.263 89.3973 732.503 85.936C730.802 82.4747 729.951 78.0747 729.951 72.736C729.951 67.28 730.861 62.7333 732.679 59.096C734.557 55.4587 737.109 52.76 740.335 51C743.621 49.1813 747.346 48.272 751.511 48.272ZM802.907 48.272C804.785 48.272 806.31 48.6827 807.483 49.504C808.657 50.2667 809.507 51.264 810.035 52.496C810.622 53.728 810.915 55.0187 810.915 56.368C810.915 58.5387 810.27 60.328 808.979 61.736C807.747 63.0853 806.105 63.76 804.051 63.76C801.998 63.76 800.385 63.2613 799.211 62.264C798.097 61.208 797.539 59.8293 797.539 58.128C797.539 56.4853 797.891 55.136 798.595 54.08C799.358 52.9653 800.297 52.0267 801.411 51.264C800.59 51.0293 799.769 51.0587 798.947 51.352C797.833 51.528 796.777 51.9973 795.779 52.76C794.782 53.464 793.931 54.3733 793.227 55.488C792.523 56.544 791.966 57.7173 791.555 59.008C791.145 60.24 790.939 61.4427 790.939 62.616V85.936C790.939 88.752 791.614 90.6587 792.963 91.656C794.371 92.6533 796.454 93.152 799.211 93.152V95C797.862 94.9413 795.897 94.8827 793.315 94.824C790.734 94.7067 788.035 94.648 785.219 94.648C782.873 94.648 780.497 94.7067 778.091 94.824C775.686 94.8827 773.867 94.9413 772.635 95V93.152C774.689 93.152 776.126 92.712 776.947 91.832C777.827 90.952 778.267 89.28 778.267 86.816V59.096C778.267 56.456 777.857 54.52 777.035 53.288C776.273 51.9973 774.806 51.352 772.635 51.352V49.504C774.513 49.68 776.331 49.768 778.091 49.768C780.555 49.768 782.843 49.68 784.955 49.504C787.126 49.2693 789.121 48.9467 790.939 48.536V56.72C791.643 55.136 792.582 53.6987 793.755 52.408C794.929 51.1173 796.278 50.12 797.803 49.416C799.329 48.6533 801.03 48.272 802.907 48.272Z" fill="#0C3636"/>
<path d="M259.242 26.096V85.32C259.242 87.96 259.653 89.9253 260.474 91.216C261.295 92.448 262.762 93.064 264.874 93.064V94.912C263.055 94.736 261.237 94.648 259.418 94.648C256.954 94.648 254.637 94.736 252.466 94.912C250.354 95.088 248.389 95.4107 246.57 95.88V36.656C246.57 34.016 246.159 32.08 245.338 30.848C244.575 29.5573 243.109 28.912 240.938 28.912V27.064C242.815 27.24 244.634 27.328 246.394 27.328C248.799 27.328 251.087 27.24 253.258 27.064C255.429 26.8293 257.423 26.5067 259.242 26.096ZM236.802 48.272C239.383 48.272 241.642 48.712 243.578 49.592C245.573 50.4133 247.127 51.8213 248.242 53.816L247.186 54.784C246.423 53.376 245.397 52.3787 244.106 51.792C242.874 51.1467 241.554 50.824 240.146 50.824C237.154 50.824 234.778 52.584 233.018 56.104C231.258 59.5653 230.407 64.9333 230.466 72.208C230.466 77.1947 230.789 81.184 231.434 84.176C232.138 87.1093 233.106 89.2213 234.338 90.512C235.629 91.8027 237.095 92.448 238.738 92.448C240.733 92.448 242.522 91.656 244.106 90.072C245.69 88.488 246.541 86.3467 246.658 83.648L247.098 86.728C246.218 89.8373 244.781 92.2133 242.786 93.856C240.85 95.44 238.298 96.232 235.13 96.232C231.669 96.232 228.559 95.3813 225.802 93.68C223.103 91.9787 220.991 89.368 219.466 85.848C217.941 82.2693 217.178 77.664 217.178 72.032C217.178 66.6933 218.029 62.2933 219.73 58.832C221.431 55.312 223.749 52.672 226.682 50.912C229.674 49.152 233.047 48.272 236.802 48.272ZM312.364 48.536V85.408C312.364 88.048 312.774 90.0133 313.596 91.304C314.417 92.536 315.884 93.152 317.996 93.152V95C316.177 94.824 314.358 94.736 312.54 94.736C310.076 94.736 307.788 94.824 305.676 95C303.564 95.176 301.569 95.4987 299.692 95.968V88.048C298.284 90.9813 296.318 93.0933 293.796 94.384C291.332 95.616 288.574 96.232 285.524 96.232C283.06 96.232 281.065 95.9093 279.54 95.264C278.014 94.6187 276.812 93.7973 275.932 92.8C274.934 91.6853 274.23 90.2187 273.82 88.4C273.409 86.5813 273.204 84.2347 273.204 81.36V59.096C273.204 56.456 272.793 54.52 271.972 53.288C271.209 51.9973 269.742 51.352 267.572 51.352V49.504C269.449 49.68 271.268 49.768 273.028 49.768C275.492 49.768 277.78 49.68 279.892 49.504C282.062 49.2693 284.057 48.9467 285.876 48.536V84.968C285.876 86.4347 285.993 87.7253 286.228 88.84C286.521 89.9547 287.049 90.8347 287.812 91.48C288.574 92.0667 289.689 92.36 291.156 92.36C292.74 92.36 294.148 91.92 295.38 91.04C296.67 90.16 297.697 88.9573 298.46 87.432C299.281 85.848 299.692 84.088 299.692 82.152V59.096C299.692 56.456 299.281 54.52 298.46 53.288C297.697 51.9973 296.23 51.352 294.06 51.352V49.504C295.937 49.68 297.756 49.768 299.516 49.768C301.98 49.768 304.268 49.68 306.38 49.504C308.55 49.2693 310.545 48.9467 312.364 48.536ZM344.787 48.272C347.075 48.272 349.158 48.536 351.035 49.064C352.971 49.5333 354.555 50.1493 355.787 50.912C357.312 51.8507 358.486 53.024 359.307 54.432C360.187 55.7813 360.627 57.3653 360.627 59.184C360.627 61.2373 359.982 62.9387 358.691 64.288C357.4 65.5787 355.728 66.224 353.675 66.224C351.622 66.224 349.979 65.6373 348.747 64.464C347.515 63.2907 346.899 61.7067 346.899 59.712C346.899 57.8347 347.486 56.28 348.659 55.048C349.832 53.7573 351.182 52.9067 352.707 52.496C352.238 51.9093 351.534 51.4107 350.595 51C349.656 50.5893 348.6 50.384 347.427 50.384C345.608 50.384 343.995 50.912 342.587 51.968C341.238 53.024 340.094 54.4907 339.155 56.368C338.216 58.2453 337.483 60.4453 336.955 62.968C336.486 65.4907 336.251 68.248 336.251 71.24C336.251 75.7573 336.808 79.3067 337.923 81.888C339.096 84.4693 340.563 86.288 342.323 87.344C344.142 88.4 346.019 88.928 347.955 88.928C349.07 88.928 350.272 88.752 351.563 88.4C352.912 88.048 354.262 87.344 355.611 86.288C357.019 85.232 358.31 83.736 359.483 81.8L360.979 82.328C360.334 84.4987 359.278 86.6693 357.811 88.84C356.344 91.0107 354.438 92.8 352.091 94.208C349.744 95.5573 346.87 96.232 343.467 96.232C339.654 96.232 336.192 95.4107 333.083 93.768C330.032 92.0667 327.568 89.4853 325.691 86.024C323.872 82.504 322.963 77.9867 322.963 72.472C322.963 67.192 323.902 62.7627 325.779 59.184C327.715 55.5467 330.326 52.8187 333.611 51C336.896 49.1813 340.622 48.272 344.787 48.272ZM383.427 35.072V49.504H393.811V51.264H383.427V86.816C383.427 88.576 383.75 89.8373 384.395 90.6C385.041 91.304 386.009 91.656 387.299 91.656C388.355 91.656 389.411 91.2747 390.467 90.512C391.523 89.6907 392.462 88.312 393.283 86.376L394.779 87.168C393.841 89.808 392.403 91.9787 390.467 93.68C388.59 95.3813 386.009 96.232 382.723 96.232C380.787 96.232 379.086 95.968 377.619 95.44C376.153 94.9707 374.921 94.2373 373.923 93.24C372.633 91.9493 371.782 90.3653 371.371 88.488C370.961 86.552 370.755 84.0587 370.755 81.008V51.264H363.363V49.504H370.755V37.888C373.219 37.888 375.478 37.6827 377.531 37.272C379.643 36.8027 381.609 36.0693 383.427 35.072ZM444.51 32.696C456.068 32.696 464.662 35.336 470.294 40.616C475.926 45.8373 478.742 53.3467 478.742 63.144C478.742 69.5387 477.364 75.1413 474.606 79.952C471.849 84.704 467.83 88.4 462.55 91.04C457.329 93.68 451.052 95 443.718 95C442.78 95 441.548 94.9707 440.022 94.912C438.497 94.8533 436.913 94.824 435.27 94.824C433.628 94.7653 432.161 94.736 430.87 94.736C428.289 94.736 425.737 94.7653 423.214 94.824C420.75 94.824 418.785 94.8827 417.318 95V93.24C419.196 93.1227 420.604 92.888 421.542 92.536C422.481 92.184 423.097 91.48 423.39 90.424C423.742 89.368 423.918 87.784 423.918 85.672V42.024C423.918 39.8533 423.742 38.2693 423.39 37.272C423.097 36.216 422.452 35.512 421.454 35.16C420.516 34.7493 419.137 34.5147 417.318 34.456V32.696C418.785 32.7547 420.75 32.8427 423.214 32.96C425.737 33.0187 428.23 33.0187 430.694 32.96C432.806 32.9013 435.182 32.8427 437.822 32.784C440.521 32.7253 442.75 32.696 444.51 32.696ZM444.422 34.28C441.724 34.28 439.964 34.7787 439.142 35.776C438.321 36.7733 437.91 38.7973 437.91 41.848V85.848C437.91 88.8987 438.321 90.9227 439.142 91.92C440.022 92.9173 441.812 93.416 444.51 93.416C449.438 93.416 453.31 92.272 456.126 89.984C459.001 87.6373 461.054 84.2347 462.286 79.776C463.518 75.3173 464.134 69.8907 464.134 63.496C464.134 56.9253 463.46 51.4987 462.11 47.216C460.82 42.8747 458.737 39.648 455.862 37.536C452.988 35.3653 449.174 34.28 444.422 34.28ZM507.462 48.272C512.625 48.272 516.673 49.7973 519.606 52.848C522.54 55.8987 524.006 60.8853 524.006 67.808H495.054L494.878 66.136H512.918C512.977 63.2613 512.801 60.6213 512.39 58.216C511.98 55.752 511.334 53.7867 510.454 52.32C509.574 50.8533 508.401 50.12 506.934 50.12C504.881 50.12 503.121 51.4107 501.654 53.992C500.246 56.5733 499.396 60.856 499.102 66.84L499.366 67.368C499.308 68.072 499.249 68.8053 499.19 69.568C499.19 70.3307 499.19 71.1227 499.19 71.944C499.19 75.992 499.748 79.2773 500.862 81.8C502.036 84.3227 503.502 86.1707 505.262 87.344C507.022 88.4587 508.812 89.016 510.63 89.016C511.862 89.016 513.124 88.84 514.414 88.488C515.764 88.0773 517.113 87.3733 518.462 86.376C519.812 85.32 521.073 83.8533 522.246 81.976L523.83 82.504C523.126 84.7333 522.012 86.904 520.486 89.016C518.961 91.128 517.025 92.8587 514.678 94.208C512.332 95.5573 509.516 96.232 506.23 96.232C502.241 96.232 498.721 95.3813 495.67 93.68C492.62 91.9787 490.214 89.3973 488.454 85.936C486.753 82.4747 485.902 78.0747 485.902 72.736C485.902 67.28 486.812 62.7333 488.63 59.096C490.508 55.4587 493.06 52.76 496.286 51C499.572 49.1813 503.297 48.272 507.462 48.272ZM546.526 48.272C548.99 48.272 551.132 48.5947 552.95 49.24C554.828 49.8267 556.177 50.4133 556.998 51C558.993 52.3493 560.225 51.4693 560.694 48.36H562.542C562.425 50.0027 562.337 52.0267 562.278 54.432C562.22 56.7787 562.19 59.9173 562.19 63.848H560.342C560.049 61.6773 559.492 59.536 558.67 57.424C557.849 55.312 556.646 53.5813 555.062 52.232C553.537 50.8827 551.542 50.208 549.078 50.208C547.377 50.208 545.94 50.7067 544.766 51.704C543.593 52.6427 543.006 54.0213 543.006 55.84C543.006 57.6 543.534 59.1547 544.59 60.504C545.646 61.7947 546.996 63.056 548.638 64.288C550.34 65.4613 552.1 66.7227 553.918 68.072C555.854 69.5387 557.614 71.0053 559.198 72.472C560.782 73.88 562.044 75.4347 562.982 77.136C563.921 78.8373 564.39 80.8613 564.39 83.208C564.39 85.848 563.628 88.1653 562.102 90.16C560.577 92.096 558.553 93.592 556.03 94.648C553.566 95.704 550.809 96.232 547.758 96.232C545.998 96.232 544.414 96.056 543.006 95.704C541.657 95.352 540.484 94.912 539.486 94.384C538.724 94.032 537.99 93.7093 537.286 93.416C536.641 93.064 536.025 92.7707 535.438 92.536C534.852 92.36 534.324 92.5653 533.854 93.152C533.444 93.7387 533.121 94.56 532.886 95.616H531.038C531.156 93.7387 531.244 91.4507 531.302 88.752C531.361 86.0533 531.39 82.4747 531.39 78.016H533.238C533.59 81.184 534.236 84 535.174 86.464C536.113 88.8693 537.374 90.776 538.958 92.184C540.601 93.5333 542.654 94.208 545.118 94.208C546.116 94.208 547.084 94.0027 548.022 93.592C548.961 93.1813 549.724 92.5067 550.31 91.568C550.956 90.6293 551.278 89.4267 551.278 87.96C551.278 85.3787 550.428 83.2373 548.726 81.536C547.084 79.8347 544.972 77.9867 542.39 75.992C540.513 74.4667 538.724 72.9707 537.022 71.504C535.38 69.9787 534.03 68.336 532.974 66.576C531.918 64.7573 531.39 62.704 531.39 60.416C531.39 57.776 532.094 55.5467 533.502 53.728C534.91 51.9093 536.758 50.56 539.046 49.68C541.393 48.7413 543.886 48.272 546.526 48.272Z" fill="#0C3636"/>
<path d="M28.992 32.696C30.4587 32.7547 32.424 32.8133 34.888 32.872C37.4107 32.9307 39.904 32.96 42.368 32.96C45.184 32.96 47.912 32.9307 50.552 32.872C53.192 32.8133 55.0693 32.784 56.184 32.784C64.3387 32.784 70.44 34.3973 74.488 37.624C78.536 40.8507 80.56 45.016 80.56 50.12C80.56 52.232 80.1493 54.4613 79.328 56.808C78.5067 59.096 77.0987 61.2373 75.104 63.232C73.168 65.168 70.4987 66.752 67.096 67.984C63.6933 69.216 59.4107 69.832 54.248 69.832H45.272V68.072H53.368C56.8293 68.072 59.44 67.28 61.2 65.696C63.0187 64.112 64.2507 62.0293 64.896 59.448C65.6 56.8667 65.952 54.08 65.952 51.088C65.952 45.5147 65.1307 41.3493 63.488 38.592C61.8453 35.8347 59.0293 34.456 55.04 34.456C52.752 34.456 51.256 34.9547 50.552 35.952C49.9067 36.9493 49.584 38.9733 49.584 42.024V85.144C49.584 87.432 49.8187 89.1333 50.288 90.248C50.7573 91.3627 51.6667 92.096 53.016 92.448C54.3653 92.8 56.36 93.0053 59 93.064V95C57.1813 94.9413 54.8347 94.8827 51.96 94.824C49.0853 94.7653 46.064 94.736 42.896 94.736C40.3733 94.736 37.9093 94.7653 35.504 94.824C33.0987 94.8827 30.928 94.9413 28.992 95V93.24C30.8693 93.1227 32.2773 92.888 33.216 92.536C34.1547 92.184 34.7707 91.48 35.064 90.424C35.416 89.368 35.592 87.784 35.592 85.672V42.024C35.592 39.8533 35.416 38.2693 35.064 37.272C34.7707 36.216 34.1253 35.512 33.128 35.16C32.1893 34.7493 30.8107 34.5147 28.992 34.456V32.696ZM114.759 48.272C116.636 48.272 118.162 48.6827 119.335 49.504C120.508 50.2667 121.359 51.264 121.887 52.496C122.474 53.728 122.767 55.0187 122.767 56.368C122.767 58.5387 122.122 60.328 120.831 61.736C119.599 63.0853 117.956 63.76 115.903 63.76C113.85 63.76 112.236 63.2613 111.063 62.264C109.948 61.208 109.391 59.8293 109.391 58.128C109.391 56.4853 109.743 55.136 110.447 54.08C111.21 52.9653 112.148 52.0267 113.263 51.264C112.442 51.0293 111.62 51.0587 110.799 51.352C109.684 51.528 108.628 51.9973 107.631 52.76C106.634 53.464 105.783 54.3733 105.079 55.488C104.375 56.544 103.818 57.7173 103.407 59.008C102.996 60.24 102.791 61.4427 102.791 62.616V85.936C102.791 88.752 103.466 90.6587 104.815 91.656C106.223 92.6533 108.306 93.152 111.063 93.152V95C109.714 94.9413 107.748 94.8827 105.167 94.824C102.586 94.7067 99.887 94.648 97.071 94.648C94.7243 94.648 92.3483 94.7067 89.943 94.824C87.5377 94.8827 85.719 94.9413 84.487 95V93.152C86.5403 93.152 87.9777 92.712 88.799 91.832C89.679 90.952 90.119 89.28 90.119 86.816V59.096C90.119 56.456 89.7083 54.52 88.887 53.288C88.1243 51.9973 86.6577 51.352 84.487 51.352V49.504C86.3643 49.68 88.183 49.768 89.943 49.768C92.407 49.768 94.695 49.68 96.807 49.504C98.9777 49.2693 100.972 48.9467 102.791 48.536V56.72C103.495 55.136 104.434 53.6987 105.607 52.408C106.78 51.1173 108.13 50.12 109.655 49.416C111.18 48.6533 112.882 48.272 114.759 48.272Z" fill="#0C3636"/>
<path d="M157.067 106.25V103.37L163.979 96.375H140.938C139.621 96.375 138.469 95.8813 137.481 94.8938C136.494 93.9063 136 92.7542 136 91.4375V51.9375C136 50.6208 136.494 49.4688 137.481 48.4813C138.469 47.4938 139.621 47 140.938 47H196.896C198.213 47 199.365 47.4938 200.352 48.4813C201.34 49.4688 201.833 50.6208 201.833 51.9375V91.4375C201.833 92.7542 201.34 93.9063 200.352 94.8938C199.365 95.8813 198.213 96.375 196.896 96.375H173.854L180.767 103.37V106.25H157.067ZM140.938 83.5375H196.896V51.9375H140.938V83.5375Z" fill="#0C3636"/>
<path d="M613.623 34.898L595.307 30.4112L596.884 23.9722C597.305 22.2551 598.169 21.0004 599.475 20.2082C600.781 19.4159 602.293 19.2301 604.01 19.6507L610.878 21.3332C612.595 21.7539 613.85 22.6174 614.642 23.9238C615.435 25.2301 615.621 26.7419 615.2 28.4589L613.623 34.898ZM588.621 97.3311L592.362 95.0623L604.455 45.6964L598.445 44.2242L586.352 93.5901L588.621 97.3311ZM586.518 105.916L579.603 94.5154L593.8 36.5641L612.115 41.0508L597.919 99.0021L586.518 105.916Z" fill="#0C3636"/>
<defs>
<filter id="filter0_d_211_5557" x="0" y="0" width="838" height="124" filterUnits="userSpaceOnUse" color-interpolation-filters="sRGB">
<feFlood flood-opacity="0" result="BackgroundImageFix"/>
<feColorMatrix in="SourceAlpha" type="matrix" values="0 0 0 0 0 0 0 0 0 0 0 0 0 0 0 0 0 0 127 0" result="hardAlpha"/>
<feOffset dy="2"/>
<feGaussianBlur stdDeviation="1"/>
<feComposite in2="hardAlpha" operator="out"/>
<feColorMatrix type="matrix" values="0 0 0 0 0 0 0 0 0 0 0 0 0 0 0 0 0 0 0.25 0"/>
<feBlend mode="normal" in2="BackgroundImageFix" result="effect1_dropShadow_211_5557"/>
<feBlend mode="normal" in="SourceGraphic" in2="effect1_dropShadow_211_5557" result="shape"/>
</filter>
</defs>
</svg>
